<svg id="Layer_1" data-name="Layer 1" xmlns="http://www.w3.org/2000/svg" viewBox="0 0 466.66 733.65"><defs><style>.cls-1{fill:#010101;}.cls-2{fill:#231f20;}.cls-3,.cls-7,.cls-8{fill:#fff;}.cls-4,.cls-5,.cls-6,.cls-9{fill:none;}.cls-4,.cls-5,.cls-6,.cls-7,.cls-8,.cls-9{stroke:#231f20;stroke-miterlimit:10;}.cls-5{stroke-dasharray:11.81 5.9;}.cls-6{stroke-dasharray:11.81 5.9;}.cls-7,.cls-8{stroke-linecap:round;}.cls-7{stroke-width:2px;}.cls-9{stroke-width:0.5px;stroke-dasharray:12 6;}</style></defs><path class="cls-1" d="M150.83,71.77c0,6.85-5.07,11.08-13.25,11.08h-7v9h-5.78V60.7h12.81C145.76,60.7,150.83,64.88,150.83,71.77Zm-5.82,0c0-3.91-2.63-6.18-7.7-6.18h-6.76V78h6.76C142.38,78,145,75.69,145,71.77Z" transform="translate(-44.22 -42.74)"/><path class="cls-1" d="M178.15,78.22V91.84h-5.56V78.94c0-4.23-2.09-6.28-5.65-6.28-4,0-6.63,2.41-6.63,7.17v12h-5.56V65.33H151.1V61.68h3.65V58.83h5.56v2.85h8.76v3.65h-8.76v5.51a10.58,10.58,0,0,1,7.92-3C173.92,67.82,178.15,71.06,178.15,78.22Z" transform="translate(-44.22 -42.74)"/><path class="cls-1" d="M181.71,80c0-7.12,5.34-12.14,12.63-12.14S207,72.84,207,80s-5.3,12.19-12.68,12.19S181.71,87.08,181.71,80Zm19.7,0c0-4.54-3-7.43-7.07-7.43s-7,2.89-7,7.43,3,7.43,7,7.43S201.41,84.5,201.41,80Z" transform="translate(-44.22 -42.74)"/><path class="cls-1" d="M224.86,90.54a8.75,8.75,0,0,1-5.34,1.61c-5.21,0-8.19-2.76-8.19-8V72.71h-3.91V68.26h3.91V62.83h5.56v5.43h6.36v4.45h-6.36V84c0,2.31,1.16,3.55,3.3,3.55a5.05,5.05,0,0,0,3.11-1Z" transform="translate(-44.22 -42.74)"/><path class="cls-1" d="M224.9,80c0-7.12,5.34-12.14,12.63-12.14s12.68,5,12.68,12.14-5.29,12.19-12.68,12.19S224.9,87.08,224.9,80Zm19.71,0c0-4.54-3-7.43-7.08-7.43s-7,2.89-7,7.43,3,7.43,7,7.43S244.61,84.5,244.61,80Z" transform="translate(-44.22 -42.74)"/><path class="cls-1" d="M277.17,78.22V91.84h-5.56V78.94c0-4.23-2.09-6.28-5.65-6.28-4,0-6.63,2.41-6.63,7.17v12h-5.56V68.08h5.29v3.07c1.83-2.18,4.72-3.33,8.19-3.33C272.94,67.82,277.17,71.06,277.17,78.22Z" transform="translate(-44.22 -42.74)"/><path class="cls-1" d="M280.11,89l1-1.78a13.47,13.47,0,0,0,8.36,2.81c4.89,0,6.85-1.74,6.85-4.36,0-6.76-15.39-1.78-15.39-10.9,0-3.51,2.94-6.36,8.81-6.36a14.25,14.25,0,0,1,8,2.27l-1,1.78a11.94,11.94,0,0,0-7-2.09c-4.53,0-6.54,1.86-6.54,4.35,0,7,15.39,2,15.39,10.9,0,3.78-3.24,6.36-9.16,6.36C285.58,92,281.93,90.72,280.11,89Z" transform="translate(-44.22 -42.74)"/><path class="cls-1" d="M314.54,90.37A7.07,7.07,0,0,1,309.78,92c-4.1,0-6.32-2.4-6.32-6.31V70.53h-4.27V68.62h4.27V63.55h2.22v5.07h7.39v1.91h-7.39V85.47c0,3,1.47,4.63,4.32,4.63a5.3,5.3,0,0,0,3.6-1.29Z" transform="translate(-44.22 -42.74)"/><path class="cls-1" d="M337.71,80.76h-20C318,86.27,322,90,327.57,90A9.38,9.38,0,0,0,335,86.76l1.29,1.47A11.13,11.13,0,0,1,327.52,92c-7,0-12-4.89-12-11.78s4.76-11.79,11.12-11.79,11.07,4.8,11.07,11.7C337.75,80.31,337.71,80.54,337.71,80.76ZM317.78,79h17.79a8.77,8.77,0,0,0-8.89-8.62C321.74,70.4,318.14,74,317.78,79Z" transform="translate(-44.22 -42.74)"/><path class="cls-1" d="M353.86,68.44v2.18c-.18,0-.36-.05-.54-.05-5.16,0-8.23,3.43-8.23,9.17v12.1h-2.22V68.62H345v5.07C346.43,70.31,349.5,68.44,353.86,68.44Z" transform="translate(-44.22 -42.74)"/><path class="cls-1" d="M355,89l1-1.78a13.47,13.47,0,0,0,8.36,2.81c4.89,0,6.85-1.74,6.85-4.36,0-6.76-15.39-1.78-15.39-10.9,0-3.51,2.94-6.36,8.81-6.36a14.25,14.25,0,0,1,8,2.27l-1,1.78a11.94,11.94,0,0,0-7-2.09c-4.53,0-6.53,1.86-6.53,4.35,0,7,15.38,2,15.38,10.9,0,3.78-3.24,6.36-9.16,6.36C360.49,92,356.84,90.72,355,89Z" transform="translate(-44.22 -42.74)"/><polygon id="polygon9" class="cls-1" points="371.38 0 340.36 17.91 340.36 53.74 349.89 59.24 349.89 23.42 371.38 11 392.88 23.42 392.88 45.5 371.38 57.96 371.37 46.08 382.57 39.55 382.57 29.37 371.38 22.9 360.19 29.37 360.19 65.2 371.34 71.64 402.41 53.71 402.41 17.91 371.38 0"/><path class="cls-2" d="M125.1,121.25v5.37h7.72v1.89H125.1v6.23h-2.2v-15.4h10.87v1.91Z" transform="translate(-44.22 -42.74)"/><path class="cls-2" d="M135.11,128.91a6.06,6.06,0,1,1,6.07,6A5.8,5.8,0,0,1,135.11,128.91Zm10,0a3.93,3.93,0,1,0-7.86,0,3.93,3.93,0,1,0,7.86,0Z" transform="translate(-44.22 -42.74)"/><path class="cls-2" d="M156.43,123v2a4.18,4.18,0,0,0-.49,0c-2.26,0-3.67,1.39-3.67,3.94v5.81h-2.11V123.08h2v2C152.93,123.67,154.38,123,156.43,123Z" transform="translate(-44.22 -42.74)"/><path class="cls-2" d="M178.39,128v6.71h-2.12v-6.47c0-2.29-1.1-3.41-3-3.41-2.11,0-3.5,1.34-3.5,3.87v6h-2.11v-6.47c0-2.29-1.1-3.41-3-3.41-2.11,0-3.5,1.34-3.5,3.87v6H159V123.08h2v1.74a4.7,4.7,0,0,1,4-1.85,4.31,4.31,0,0,1,4.05,2.15,5.25,5.25,0,0,1,4.49-2.15C176.45,123,178.39,124.6,178.39,128Z" transform="translate(-44.22 -42.74)"/><path class="cls-2" d="M182.28,118.41h2.11v16.33h-2.11Z" transform="translate(-44.22 -42.74)"/><path class="cls-2" d="M197.66,127.7v7h-2V133.2a4.34,4.34,0,0,1-3.83,1.67c-2.64,0-4.31-1.41-4.31-3.43,0-1.87,1.21-3.41,4.69-3.41h3.34v-.42c0-1.78-1-2.82-3.12-2.82a5.9,5.9,0,0,0-3.7,1.26l-.88-1.59a7.82,7.82,0,0,1,4.82-1.49C195.85,123,197.66,124.51,197.66,127.7Zm-2.12,3.47v-1.62h-3.25c-2.09,0-2.69.81-2.69,1.8,0,1.17,1,1.89,2.58,1.89A3.37,3.37,0,0,0,195.54,131.17Z" transform="translate(-44.22 -42.74)"/><path class="cls-2" d="M213.65,128.91a5.68,5.68,0,0,1-5.9,6,4.94,4.94,0,0,1-4.16-2v1.85h-2V118.41h2.11v6.43a5,5,0,0,1,4.07-1.87A5.66,5.66,0,0,1,213.65,128.91Zm-2.13,0a3.93,3.93,0,1,0-3.94,4.11A3.84,3.84,0,0,0,211.52,128.91Z" transform="translate(-44.22 -42.74)"/><path class="cls-2" d="M215.1,133.51l.88-1.68a7.43,7.43,0,0,0,4.09,1.21c2,0,2.77-.59,2.77-1.58,0-2.62-7.37-.35-7.37-5,0-2.09,1.87-3.5,4.87-3.5a8.48,8.48,0,0,1,4.24,1l-.9,1.68a6,6,0,0,0-3.37-.93c-1.84,0-2.75.68-2.75,1.61,0,2.75,7.4.5,7.4,5,0,2.11-1.94,3.45-5,3.45A8.42,8.42,0,0,1,215.1,133.51Z" transform="translate(-44.22 -42.74)"/><path class="cls-2" d="M236,121.25v5.37h7.73v1.89H236v6.23h-2.2v-15.4h10.87v1.91Z" transform="translate(-44.22 -42.74)"/><path class="cls-2" d="M246,128.91a6.06,6.06,0,1,1,6.07,6A5.8,5.8,0,0,1,246,128.91Zm10,0A3.93,3.93,0,1,0,252.1,133,3.82,3.82,0,0,0,256,128.91Z" transform="translate(-44.22 -42.74)"/><path class="cls-2" d="M267.35,123v2a4.1,4.1,0,0,0-.48,0c-2.27,0-3.68,1.39-3.68,3.94v5.81h-2.11V123.08h2v2C263.85,123.67,265.3,123,267.35,123Z" transform="translate(-44.22 -42.74)"/><path class="cls-2" d="M289.31,128v6.71H287.2v-6.47c0-2.29-1.1-3.41-3-3.41-2.11,0-3.5,1.34-3.5,3.87v6h-2.11v-6.47c0-2.29-1.1-3.41-3-3.41-2.12,0-3.5,1.34-3.5,3.87v6H270V123.08h2v1.74a4.73,4.73,0,0,1,4-1.85,4.3,4.3,0,0,1,4,2.15,5.25,5.25,0,0,1,4.49-2.15C287.37,123,289.31,124.6,289.31,128Z" transform="translate(-44.22 -42.74)"/><path class="cls-2" d="M303,119.34v15.4h-2.18V121.25h-3.48v-1.91Z" transform="translate(-44.22 -42.74)"/><path class="cls-2" d="M316.59,127.92h-4v3.94h-1.85v-3.94h-4v-1.74h4v-4h1.85v4h4Z" transform="translate(-44.22 -42.74)"/><path class="cls-2" d="M133.57,153.35h2.11v6a9.13,9.13,0,0,1-5.83,1.95c-4.73,0-8.21-3.32-8.21-7.87s3.48-7.88,8.26-7.88a7.67,7.67,0,0,1,5.91,2.38l-1.36,1.36a6.12,6.12,0,0,0-4.47-1.78,5.92,5.92,0,1,0,0,11.84,6.55,6.55,0,0,0,3.61-1Z" transform="translate(-44.22 -42.74)"/><path class="cls-2" d="M145.85,149.37v2a4.18,4.18,0,0,0-.49,0c-2.26,0-3.67,1.39-3.67,3.94v5.81h-2.12V149.48h2v2C142.35,150.07,143.8,149.37,145.85,149.37Z" transform="translate(-44.22 -42.74)"/><path class="cls-2" d="M148.07,145.87a1.39,1.39,0,0,1,1.43-1.39,1.38,1.38,0,1,1-1.43,1.39Zm.37,3.61h2.11v11.66h-2.11Z" transform="translate(-44.22 -42.74)"/><path class="cls-2" d="M165.58,144.81v16.33h-2v-1.85a4.94,4.94,0,0,1-4.16,2,6,6,0,0,1,0-11.9,5,5,0,0,1,4.07,1.87v-6.43Zm-2.09,10.5a3.93,3.93,0,1,0-3.92,4.11A3.83,3.83,0,0,0,163.49,155.31Z" transform="translate(-44.22 -42.74)"/><path class="cls-2" d="M174.55,153.44a7.79,7.79,0,0,1,8.17-7.88,7.6,7.6,0,0,1,5.85,2.4l-1.43,1.38a5.72,5.72,0,0,0-4.34-1.82,5.92,5.92,0,1,0,0,11.84,5.75,5.75,0,0,0,4.34-1.85l1.43,1.38a7.63,7.63,0,0,1-5.88,2.42A7.78,7.78,0,0,1,174.55,153.44Z" transform="translate(-44.22 -42.74)"/><path class="cls-2" d="M200.49,154.1v7h-2V159.6a4.34,4.34,0,0,1-3.83,1.67c-2.64,0-4.31-1.41-4.31-3.43,0-1.87,1.21-3.41,4.69-3.41h3.34V154c0-1.78-1-2.82-3.12-2.82a5.9,5.9,0,0,0-3.7,1.26l-.88-1.59a7.82,7.82,0,0,1,4.82-1.49C198.69,149.37,200.49,150.91,200.49,154.1Zm-2.11,3.47V156h-3.26c-2.09,0-2.68.81-2.68,1.8,0,1.17,1,1.89,2.57,1.89A3.37,3.37,0,0,0,198.38,157.57Z" transform="translate(-44.22 -42.74)"/><path class="cls-2" d="M204.41,144.81h2.11v16.33h-2.11Z" transform="translate(-44.22 -42.74)"/><path class="cls-2" d="M210.17,145.87a1.4,1.4,0,0,1,1.43-1.39,1.38,1.38,0,1,1-1.43,1.39Zm.38,3.61h2.11v11.66h-2.11Z" transform="translate(-44.22 -42.74)"/><path class="cls-2" d="M228.76,155.31a5.67,5.67,0,0,1-5.89,6,4.92,4.92,0,0,1-4.16-2v1.85h-2V144.81h2.12v6.43a4.93,4.93,0,0,1,4.07-1.87A5.65,5.65,0,0,1,228.76,155.31Zm-2.13,0a3.93,3.93,0,1,0-3.94,4.11A3.84,3.84,0,0,0,226.63,155.31Z" transform="translate(-44.22 -42.74)"/><path class="cls-2" d="M238,149.37v2a4.18,4.18,0,0,0-.49,0c-2.26,0-3.67,1.39-3.67,3.94v5.81h-2.11V149.48h2v2C234.46,150.07,235.91,149.37,238,149.37Z" transform="translate(-44.22 -42.74)"/><path class="cls-2" d="M249.77,154.1v7h-2V159.6a4.34,4.34,0,0,1-3.83,1.67c-2.64,0-4.31-1.41-4.31-3.43,0-1.87,1.21-3.41,4.69-3.41h3.34V154c0-1.78-1-2.82-3.12-2.82a5.9,5.9,0,0,0-3.7,1.26l-.88-1.59a7.82,7.82,0,0,1,4.82-1.49C248,149.37,249.77,150.91,249.77,154.1Zm-2.11,3.47V156H244.4c-2.09,0-2.68.81-2.68,1.8,0,1.17,1,1.89,2.57,1.89A3.37,3.37,0,0,0,247.66,157.57Z" transform="translate(-44.22 -42.74)"/><path class="cls-2" d="M260.24,160.46a4,4,0,0,1-2.55.81,3.33,3.33,0,0,1-3.69-3.65v-6.4h-2v-1.74h2v-2.56h2.11v2.56h3.34v1.74h-3.34v6.31a1.72,1.72,0,0,0,1.82,2,2.66,2.66,0,0,0,1.65-.55Z" transform="translate(-44.22 -42.74)"/><path class="cls-2" d="M262.42,145.87a1.4,1.4,0,0,1,1.43-1.39,1.38,1.38,0,1,1-1.43,1.39Zm.38,3.61h2.11v11.66H262.8Z" transform="translate(-44.22 -42.74)"/><path class="cls-2" d="M267.85,155.31a6.07,6.07,0,1,1,6.08,6A5.81,5.81,0,0,1,267.85,155.31Zm10,0a3.93,3.93,0,1,0-7.85,0,3.93,3.93,0,1,0,7.85,0Z" transform="translate(-44.22 -42.74)"/><path class="cls-2" d="M294,154.43v6.71h-2.11v-6.47c0-2.29-1.15-3.41-3.15-3.41-2.24,0-3.7,1.34-3.7,3.87v6H282.9V149.48h2v1.76a5,5,0,0,1,4.2-1.87C292,149.37,294,151,294,154.43Z" transform="translate(-44.22 -42.74)"/><path class="cls-2" d="M307.17,147.65h-5.28v-1.91h12.74v1.91h-5.28v13.49h-2.18Z" transform="translate(-44.22 -42.74)"/><path class="cls-2" d="M326,156h-9.46a4,4,0,0,0,4.22,3.41,4.34,4.34,0,0,0,3.37-1.41l1.17,1.37a5.88,5.88,0,0,1-4.6,1.89c-3.76,0-6.27-2.49-6.27-6a5.7,5.7,0,0,1,5.85-5.94,5.62,5.62,0,0,1,5.77,6C326.05,155.55,326,155.81,326,156Zm-9.46-1.52H324a3.76,3.76,0,0,0-7.48,0Z" transform="translate(-44.22 -42.74)"/><path class="cls-2" d="M348.33,154.43v6.71h-2.11v-6.47c0-2.29-1.1-3.41-3-3.41-2.12,0-3.5,1.34-3.5,3.87v6H337.6v-6.47c0-2.29-1.1-3.41-3-3.41-2.11,0-3.5,1.34-3.5,3.87v6H329V149.48h2v1.74a4.73,4.73,0,0,1,4-1.85,4.32,4.32,0,0,1,4.05,2.15,5.25,5.25,0,0,1,4.49-2.15C346.4,149.37,348.33,151,348.33,154.43Z" transform="translate(-44.22 -42.74)"/><path class="cls-2" d="M364.3,155.31a5.66,5.66,0,0,1-5.89,6,5,5,0,0,1-4.07-1.89v6h-2.12V149.48h2v1.85a5,5,0,0,1,4.16-2A5.65,5.65,0,0,1,364.3,155.31Zm-2.13,0a3.93,3.93,0,1,0-3.94,4.11A3.85,3.85,0,0,0,362.17,155.31Z" transform="translate(-44.22 -42.74)"/><path class="cls-2" d="M367.23,144.81h2.11v16.33h-2.11Z" transform="translate(-44.22 -42.74)"/><path class="cls-2" d="M382.61,154.1v7h-2V159.6a4.33,4.33,0,0,1-3.82,1.67c-2.64,0-4.32-1.41-4.32-3.43,0-1.87,1.21-3.41,4.69-3.41h3.34V154c0-1.78-1-2.82-3.12-2.82a5.92,5.92,0,0,0-3.7,1.26l-.88-1.59a7.82,7.82,0,0,1,4.82-1.49C380.8,149.37,382.61,150.91,382.61,154.1Zm-2.12,3.47V156h-3.25c-2.09,0-2.69.81-2.69,1.8,0,1.17,1,1.89,2.58,1.89A3.36,3.36,0,0,0,380.49,157.57Z" transform="translate(-44.22 -42.74)"/><path class="cls-2" d="M393.08,160.46a4,4,0,0,1-2.55.81c-2.36,0-3.7-1.3-3.7-3.65v-6.4h-2v-1.74h2v-2.56h2.11v2.56h3.35v1.74h-3.35v6.31a1.72,1.72,0,0,0,1.83,2,2.68,2.68,0,0,0,1.65-.55Z" transform="translate(-44.22 -42.74)"/><path class="cls-2" d="M405.73,156h-9.46a3.94,3.94,0,0,0,4.22,3.41,4.34,4.34,0,0,0,3.37-1.41l1.16,1.37a5.84,5.84,0,0,1-4.59,1.89c-3.77,0-6.28-2.49-6.28-6a5.71,5.71,0,0,1,5.86-5.94,5.62,5.62,0,0,1,5.76,6C405.77,155.55,405.75,155.81,405.73,156Zm-9.46-1.52h7.48a3.76,3.76,0,0,0-7.48,0Z" transform="translate(-44.22 -42.74)"/><path class="cls-2" d="M130,186c0,2.13-1.54,3.42-4.09,3.42h-2.42v3h-1.4v-9.81h3.82C128.43,182.53,130,183.82,130,186Zm-1.4,0c0-1.4-.94-2.2-2.73-2.2h-2.38v4.4h2.38C127.63,188.15,128.57,187.35,128.57,186Z" transform="translate(-44.22 -42.74)"/><path class="cls-2" d="M135.7,184.84v1.31a1.67,1.67,0,0,0-.31,0,2.22,2.22,0,0,0-2.34,2.51v3.7h-1.34v-7.42H133v1.24A2.84,2.84,0,0,1,135.7,184.84Z" transform="translate(-44.22 -42.74)"/><path class="cls-2" d="M137.11,182.62a.88.88,0,0,1,.91-.88.86.86,0,0,1,.91.85.89.89,0,0,1-.91.9A.87.87,0,0,1,137.11,182.62Zm.24,2.3h1.34v7.42h-1.34Z" transform="translate(-44.22 -42.74)"/><path class="cls-2" d="M148.3,188.07v4.27H147v-4.12c0-1.46-.72-2.17-2-2.17a2.2,2.2,0,0,0-2.35,2.46v3.83h-1.35v-7.42h1.29V186a3.19,3.19,0,0,1,2.68-1.2A2.88,2.88,0,0,1,148.3,188.07Z" transform="translate(-44.22 -42.74)"/><path class="cls-2" d="M155,191.9a2.52,2.52,0,0,1-1.62.52A2.12,2.12,0,0,1,151,190.1V186h-1.26v-1.1H151v-1.63h1.35v1.63h2.13V186h-2.13v4a1.1,1.1,0,0,0,1.16,1.25,1.72,1.72,0,0,0,1-.35Z" transform="translate(-44.22 -42.74)"/><path class="cls-2" d="M166.23,187.86v4.48H165v-1a2.77,2.77,0,0,1-2.44,1.06c-1.68,0-2.75-.89-2.75-2.18s.77-2.17,3-2.17h2.13v-.27c0-1.13-.66-1.79-2-1.79a3.79,3.79,0,0,0-2.36.8l-.56-1a4.93,4.93,0,0,1,3.07-1C165.08,184.84,166.23,185.83,166.23,187.86Zm-1.34,2.21v-1h-2.08c-1.33,0-1.7.52-1.7,1.15s.61,1.21,1.63,1.21A2.17,2.17,0,0,0,164.89,190.07Z" transform="translate(-44.22 -42.74)"/><path class="cls-2" d="M172.89,191.9a2.52,2.52,0,0,1-1.62.52,2.11,2.11,0,0,1-2.35-2.32V186h-1.26v-1.1h1.26v-1.63h1.34v1.63h2.13V186h-2.13v4a1.1,1.1,0,0,0,1.16,1.25,1.7,1.7,0,0,0,1.05-.35Z" transform="translate(-44.22 -42.74)"/><path class="cls-2" d="M180.72,182.53v9.81h-1.39v-8.59h-2.21v-1.22Z" transform="translate(-44.22 -42.74)"/><path class="cls-2" d="M182.83,185.8a1,1,0,0,1,.95-1,1,1,0,0,1,0,1.92A1,1,0,0,1,182.83,185.8Zm0,5.66a1,1,0,0,1,.95-1,1,1,0,0,1,0,1.92A1,1,0,0,1,182.83,191.46Z" transform="translate(-44.22 -42.74)"/><path class="cls-2" d="M189.08,182.53v9.81h-1.39v-8.59h-2.21v-1.22Z" transform="translate(-44.22 -42.74)"/><path class="cls-2" d="M194.65,191.55l.56-1.06a4.75,4.75,0,0,0,2.6.77c1.25,0,1.77-.38,1.77-1,0-1.66-4.69-.22-4.69-3.18,0-1.33,1.19-2.23,3.09-2.23a5.37,5.37,0,0,1,2.7.68l-.57,1.06A3.9,3.9,0,0,0,198,186c-1.18,0-1.75.44-1.75,1,0,1.75,4.7.32,4.7,3.2,0,1.35-1.23,2.2-3.21,2.2A5.32,5.32,0,0,1,194.65,191.55Z" transform="translate(-44.22 -42.74)"/><path class="cls-2" d="M201.91,188.63a3.71,3.71,0,0,1,3.93-3.79,3.3,3.3,0,0,1,3,1.59l-1,.66a2.33,2.33,0,0,0-2-1.07,2.62,2.62,0,0,0,0,5.23,2.33,2.33,0,0,0,2-1.07l1,.65a3.32,3.32,0,0,1-3,1.59A3.72,3.72,0,0,1,201.91,188.63Z" transform="translate(-44.22 -42.74)"/><path class="cls-2" d="M216.48,187.86v4.48H215.2v-1a2.76,2.76,0,0,1-2.44,1.06c-1.68,0-2.74-.89-2.74-2.18s.77-2.17,3-2.17h2.13v-.27c0-1.13-.66-1.79-2-1.79a3.74,3.74,0,0,0-2.35.8l-.56-1a4.93,4.93,0,0,1,3.07-1C215.33,184.84,216.48,185.83,216.48,187.86Zm-1.35,2.21v-1h-2.07c-1.33,0-1.71.52-1.71,1.15s.62,1.21,1.64,1.21A2.15,2.15,0,0,0,215.13,190.07Z" transform="translate(-44.22 -42.74)"/><path class="cls-2" d="M219,182h1.34v10.39H219Z" transform="translate(-44.22 -42.74)"/><path class="cls-2" d="M229.55,189.08h-6a2.52,2.52,0,0,0,2.69,2.17,2.76,2.76,0,0,0,2.14-.9l.75.87a3.76,3.76,0,0,1-2.93,1.2,3.71,3.71,0,0,1-4-3.79,3.64,3.64,0,0,1,3.72-3.79,3.59,3.59,0,0,1,3.67,3.83A3,3,0,0,1,229.55,189.08Zm-6-1h4.76a2.39,2.39,0,0,0-4.76,0Z" transform="translate(-44.22 -42.74)"/><path class="cls-2" d="M235.26,188.5a12.23,12.23,0,0,1,1.67-6.55h1.27a14.07,14.07,0,0,0,0,13.11h-1.27A12.37,12.37,0,0,1,235.26,188.5Z" transform="translate(-44.22 -42.74)"/><path class="cls-2" d="M242.5,182.53v9.81h-1.39v-8.59H238.9v-1.22Z" transform="translate(-44.22 -42.74)"/><path class="cls-2" d="M244.64,187.44c0-3.2,1.71-5,4-5s4,1.82,4,5-1.71,5-4,5S244.64,190.63,244.64,187.44Zm6.6,0c0-2.51-1.07-3.77-2.59-3.77s-2.61,1.26-2.61,3.77,1.07,3.76,2.61,3.76S251.24,189.94,251.24,187.44Z" transform="translate(-44.22 -42.74)"/><path class="cls-2" d="M254,187.44c0-3.2,1.71-5,4-5s4,1.82,4,5-1.71,5-4,5S254,190.63,254,187.44Zm6.6,0c0-2.51-1.07-3.77-2.6-3.77s-2.6,1.26-2.6,3.77,1.06,3.76,2.6,3.76S260.58,189.94,260.58,187.44Z" transform="translate(-44.22 -42.74)"/><path class="cls-2" d="M263.16,185.13c0-1.6.93-2.68,2.29-2.68s2.26,1.06,2.26,2.68-.91,2.67-2.26,2.67A2.38,2.38,0,0,1,263.16,185.13Zm3.66,0c0-1.18-.52-1.88-1.37-1.88s-1.38.71-1.38,1.88.54,1.87,1.38,1.87S266.82,186.3,266.82,185.13Zm4.54-2.6h1.08l-6.7,9.81h-1.08Zm-2,7.22c0-1.6.91-2.68,2.27-2.68s2.28,1.08,2.28,2.68-.92,2.67-2.28,2.67S269.38,191.34,269.38,189.75Zm3.64,0c0-1.16-.53-1.88-1.37-1.88s-1.37.7-1.37,1.88.52,1.87,1.37,1.87S273,190.91,273,189.75Z" transform="translate(-44.22 -42.74)"/><path class="cls-2" d="M274.61,195.06a13.92,13.92,0,0,0,0-13.11h1.28a12.14,12.14,0,0,1,1.68,6.55,12.28,12.28,0,0,1-1.68,6.56Z" transform="translate(-44.22 -42.74)"/><path class="cls-2" d="M279.86,191.53a.9.9,0,0,1,.93-.9.9.9,0,1,1,0,1.79A.9.9,0,0,1,279.86,191.53Zm.13-9h1.58l-.26,6.71h-1.07Z" transform="translate(-44.22 -42.74)"/><path class="cls-2" d="M283.62,191.53a.89.89,0,0,1,.92-.9.9.9,0,1,1,0,1.79A.89.89,0,0,1,283.62,191.53Zm.12-9h1.59l-.27,6.71H284Z" transform="translate(-44.22 -42.74)"/><rect class="cls-3" x="40.96" y="194.81" width="425.2" height="425.2"/><polyline class="cls-4" points="466.16 614 466.16 620 460.16 620"/><line class="cls-5" x1="454.26" y1="620" x2="49.92" y2="620"/><polyline class="cls-4" points="46.96 620 40.96 620 40.96 614"/><line class="cls-6" x1="40.96" y1="608.1" x2="40.96" y2="203.76"/><polyline class="cls-4" points="40.96 200.81 40.96 194.81 46.96 194.81"/><line class="cls-5" x1="52.87" y1="194.81" x2="457.21" y2="194.81"/><polyline class="cls-4" points="460.16 194.81 466.16 194.81 466.16 200.81"/><line class="cls-6" x1="466.16" y1="206.71" x2="466.16" y2="611.05"/><line class="cls-7" x1="253.56" y1="421.58" x2="253.56" y2="393.23"/><line class="cls-7" x1="239.39" y1="407.4" x2="267.74" y2="407.4"/><circle class="cls-8" cx="253.56" cy="407.4" r="4.96"/><line class="cls-9" x1="259.23" y1="407.4" x2="247.89" y2="407.4"/><line class="cls-9" x1="253.56" y1="401.74" x2="253.56" y2="413.07"/><line class="cls-7" x1="162.85" y1="421.58" x2="162.85" y2="393.23"/><line class="cls-7" x1="148.68" y1="407.4" x2="177.03" y2="407.4"/><circle class="cls-8" cx="162.85" cy="407.4" r="4.96"/><line class="cls-9" x1="168.52" y1="407.4" x2="157.18" y2="407.4"/><line class="cls-9" x1="162.85" y1="401.74" x2="162.85" y2="413.07"/><line class="cls-7" x1="72.15" y1="421.58" x2="72.15" y2="393.23"/><line class="cls-7" x1="57.97" y1="407.4" x2="86.32" y2="407.4"/><circle class="cls-8" cx="72.15" cy="407.4" r="4.96"/><line class="cls-9" x1="77.81" y1="407.4" x2="66.48" y2="407.4"/><line class="cls-9" x1="72.15" y1="401.74" x2="72.15" y2="413.07"/><line class="cls-7" x1="344.27" y1="421.58" x2="344.27" y2="393.23"/><line class="cls-7" x1="330.1" y1="407.4" x2="358.44" y2="407.4"/><circle class="cls-8" cx="344.27" cy="407.4" r="4.96"/><line class="cls-9" x1="349.94" y1="407.4" x2="338.6" y2="407.4"/><line class="cls-9" x1="344.27" y1="401.74" x2="344.27" y2="413.07"/><line class="cls-7" x1="434.98" y1="421.58" x2="434.98" y2="393.23"/><line class="cls-7" x1="420.81" y1="407.4" x2="449.15" y2="407.4"/><circle class="cls-8" cx="434.98" cy="407.4" r="4.96"/><line class="cls-9" x1="440.65" y1="407.4" x2="429.31" y2="407.4"/><line class="cls-9" x1="434.98" y1="401.74" x2="434.98" y2="413.07"/><line class="cls-7" x1="253.56" y1="512.29" x2="253.56" y2="483.94"/><line class="cls-7" x1="239.39" y1="498.11" x2="267.74" y2="498.11"/><circle class="cls-8" cx="253.56" cy="498.11" r="4.96"/><line class="cls-9" x1="259.23" y1="498.11" x2="247.89" y2="498.11"/><line class="cls-9" x1="253.56" y1="492.44" x2="253.56" y2="503.78"/><line class="cls-7" x1="162.85" y1="512.29" x2="162.85" y2="483.94"/><line class="cls-7" x1="148.68" y1="498.11" x2="177.03" y2="498.11"/><circle class="cls-8" cx="162.85" cy="498.11" r="4.96"/><line class="cls-9" x1="168.52" y1="498.11" x2="157.18" y2="498.11"/><line class="cls-9" x1="162.85" y1="492.44" x2="162.85" y2="503.78"/><line class="cls-7" x1="72.15" y1="512.29" x2="72.15" y2="483.94"/><line class="cls-7" x1="57.97" y1="498.11" x2="86.32" y2="498.11"/><circle class="cls-8" cx="72.15" cy="498.11" r="4.96"/><line class="cls-9" x1="77.81" y1="498.11" x2="66.48" y2="498.11"/><line class="cls-9" x1="72.15" y1="492.44" x2="72.15" y2="503.78"/><line class="cls-7" x1="344.27" y1="512.29" x2="344.27" y2="483.94"/><line class="cls-7" x1="330.1" y1="498.11" x2="358.44" y2="498.11"/><circle class="cls-8" cx="344.27" cy="498.11" r="4.96"/><line class="cls-9" x1="349.94" y1="498.11" x2="338.6" y2="498.11"/><line class="cls-9" x1="344.27" y1="492.44" x2="344.27" y2="503.78"/><line class="cls-7" x1="434.98" y1="512.29" x2="434.98" y2="483.94"/><line class="cls-7" x1="420.81" y1="498.11" x2="449.15" y2="498.11"/><circle class="cls-8" cx="434.98" cy="498.11" r="4.96"/><line class="cls-9" x1="440.65" y1="498.11" x2="429.31" y2="498.11"/><line class="cls-9" x1="434.98" y1="492.44" x2="434.98" y2="503.78"/><line class="cls-7" x1="253.56" y1="602.99" x2="253.56" y2="574.65"/><line class="cls-7" x1="239.39" y1="588.82" x2="267.74" y2="588.82"/><circle class="cls-8" cx="253.56" cy="588.82" r="4.96"/><line class="cls-9" x1="259.23" y1="588.82" x2="247.89" y2="588.82"/><line class="cls-9" x1="253.56" y1="583.15" x2="253.56" y2="594.49"/><line class="cls-7" x1="162.85" y1="602.99" x2="162.85" y2="574.65"/><line class="cls-7" x1="148.68" y1="588.82" x2="177.03" y2="588.82"/><circle class="cls-8" cx="162.85" cy="588.82" r="4.96"/><line class="cls-9" x1="168.52" y1="588.82" x2="157.18" y2="588.82"/><line class="cls-9" x1="162.85" y1="583.15" x2="162.85" y2="594.49"/><line class="cls-7" x1="72.15" y1="602.99" x2="72.15" y2="574.65"/><line class="cls-7" x1="57.97" y1="588.82" x2="86.32" y2="588.82"/><circle class="cls-8" cx="72.15" cy="588.82" r="4.96"/><line class="cls-9" x1="77.81" y1="588.82" x2="66.48" y2="588.82"/><line class="cls-9" x1="72.15" y1="583.15" x2="72.15" y2="594.49"/><line class="cls-7" x1="344.27" y1="602.99" x2="344.27" y2="574.65"/><line class="cls-7" x1="330.1" y1="588.82" x2="358.44" y2="588.82"/><circle class="cls-8" cx="344.27" cy="588.82" r="4.96"/><line class="cls-9" x1="349.94" y1="588.82" x2="338.6" y2="588.82"/><line class="cls-9" x1="344.27" y1="583.15" x2="344.27" y2="594.49"/><line class="cls-7" x1="434.98" y1="602.99" x2="434.98" y2="574.65"/><line class="cls-7" x1="420.81" y1="588.82" x2="449.15" y2="588.82"/><circle class="cls-8" cx="434.98" cy="588.82" r="4.96"/><line class="cls-9" x1="440.65" y1="588.82" x2="429.31" y2="588.82"/><line class="cls-9" x1="434.98" y1="583.15" x2="434.98" y2="594.49"/><line class="cls-7" x1="253.56" y1="330.87" x2="253.56" y2="302.52"/><line class="cls-7" x1="239.39" y1="316.7" x2="267.74" y2="316.7"/><circle class="cls-8" cx="253.56" cy="316.7" r="4.96"/><line class="cls-9" x1="259.23" y1="316.7" x2="247.89" y2="316.7"/><line class="cls-9" x1="253.56" y1="311.03" x2="253.56" y2="322.37"/><line class="cls-7" x1="162.85" y1="330.87" x2="162.85" y2="302.52"/><line class="cls-7" x1="148.68" y1="316.7" x2="177.03" y2="316.7"/><circle class="cls-8" cx="162.85" cy="316.7" r="4.96"/><line class="cls-9" x1="168.52" y1="316.7" x2="157.18" y2="316.7"/><line class="cls-9" x1="162.85" y1="311.03" x2="162.85" y2="322.37"/><line class="cls-7" x1="72.15" y1="330.87" x2="72.15" y2="302.52"/><line class="cls-7" x1="57.97" y1="316.7" x2="86.32" y2="316.7"/><circle class="cls-8" cx="72.15" cy="316.7" r="4.96"/><line class="cls-9" x1="77.81" y1="316.7" x2="66.48" y2="316.7"/><line class="cls-9" x1="72.15" y1="311.03" x2="72.15" y2="322.37"/><line class="cls-7" x1="344.27" y1="330.87" x2="344.27" y2="302.52"/><line class="cls-7" x1="330.1" y1="316.7" x2="358.44" y2="316.7"/><circle class="cls-8" cx="344.27" cy="316.7" r="4.96"/><line class="cls-9" x1="349.94" y1="316.7" x2="338.6" y2="316.7"/><line class="cls-9" x1="344.27" y1="311.03" x2="344.27" y2="322.37"/><line class="cls-7" x1="434.98" y1="330.87" x2="434.98" y2="302.52"/><line class="cls-7" x1="420.81" y1="316.7" x2="449.15" y2="316.7"/><circle class="cls-8" cx="434.98" cy="316.7" r="4.96"/><line class="cls-9" x1="440.65" y1="316.7" x2="429.31" y2="316.7"/><line class="cls-9" x1="434.98" y1="311.03" x2="434.98" y2="322.37"/><line class="cls-7" x1="253.56" y1="240.16" x2="253.56" y2="211.81"/><line class="cls-7" x1="239.39" y1="225.99" x2="267.74" y2="225.99"/><circle class="cls-8" cx="253.56" cy="225.99" r="4.96"/><line class="cls-9" x1="259.23" y1="225.99" x2="247.89" y2="225.99"/><line class="cls-9" x1="253.56" y1="220.32" x2="253.56" y2="231.66"/><line class="cls-7" x1="162.85" y1="240.16" x2="162.85" y2="211.81"/><line class="cls-7" x1="148.68" y1="225.99" x2="177.03" y2="225.99"/><circle class="cls-8" cx="162.85" cy="225.99" r="4.96"/><line class="cls-9" x1="168.52" y1="225.99" x2="157.18" y2="225.99"/><line class="cls-9" x1="162.85" y1="220.32" x2="162.85" y2="231.66"/><line class="cls-7" x1="72.15" y1="240.16" x2="72.15" y2="211.81"/><line class="cls-7" x1="57.97" y1="225.99" x2="86.32" y2="225.99"/><circle class="cls-8" cx="72.15" cy="225.99" r="4.96"/><line class="cls-9" x1="77.81" y1="225.99" x2="66.48" y2="225.99"/><line class="cls-9" x1="72.15" y1="220.32" x2="72.15" y2="231.66"/><line class="cls-7" x1="344.27" y1="240.16" x2="344.27" y2="211.81"/><line class="cls-7" x1="330.1" y1="225.99" x2="358.44" y2="225.99"/><circle class="cls-8" cx="344.27" cy="225.99" r="4.96"/><line class="cls-9" x1="349.94" y1="225.99" x2="338.6" y2="225.99"/><line class="cls-9" x1="344.27" y1="220.32" x2="344.27" y2="231.66"/><line class="cls-7" x1="434.98" y1="240.16" x2="434.98" y2="211.81"/><line class="cls-7" x1="420.81" y1="225.99" x2="449.15" y2="225.99"/><circle class="cls-8" cx="434.98" cy="225.99" r="4.96"/><line class="cls-9" x1="440.65" y1="225.99" x2="429.31" y2="225.99"/><line class="cls-9" x1="434.98" y1="220.32" x2="434.98" y2="231.66"/><path class="cls-2" d="M53.17,551.31a7.78,7.78,0,0,1-7.87-8.16,7.61,7.61,0,0,1,2.39-5.85l1.39,1.43a5.72,5.72,0,0,0-1.83,4.33,5.92,5.92,0,1,0,11.84,0,5.71,5.71,0,0,0-1.85-4.33l1.39-1.43a7.65,7.65,0,0,1,2.42,5.87A7.78,7.78,0,0,1,53.17,551.31Z" transform="translate(-44.22 -42.74)"/><path class="cls-2" d="M49.21,524H60.87v2H59.11a4.75,4.75,0,0,1,1.89,4c0,3-1.64,5-5.08,5H49.21v-2.11h6.47c2.29,0,3.43-1.15,3.43-3.15,0-2.2-1.36-3.61-3.87-3.61h-6Z" transform="translate(-44.22 -42.74)"/><path class="cls-2" d="M60.19,513.39a4,4,0,0,1,.81,2.55c0,2.35-1.29,3.69-3.65,3.69H51v2H49.21v-2H46.66v-2.11h2.55v-3.34H51v3.34h6.31a1.72,1.72,0,0,0,2-1.82,2.6,2.6,0,0,0-.55-1.65Z" transform="translate(-44.22 -42.74)"/><path class="cls-2" d="M55,506a6.07,6.07,0,1,1,6-6.08A5.81,5.81,0,0,1,55,506Zm0-10a3.93,3.93,0,1,0,4.12,3.91A3.82,3.82,0,0,0,55,496Z" transform="translate(-44.22 -42.74)"/><path class="cls-2" d="M54.16,479.88h6.71V482H54.4c-2.28,0-3.41,1.15-3.41,3.15,0,2.24,1.35,3.7,3.88,3.7h6V491H49.21v-2H51a5,5,0,0,1-1.87-4.2C49.1,481.88,50.73,479.88,54.16,479.88Z" transform="translate(-44.22 -42.74)"/><path class="cls-2" d="M44.55,459.05H60.87v2H59a5,5,0,0,1,2,4.16,5.68,5.68,0,0,1-6,5.9,5.66,5.66,0,0,1-5.94-5.9A5,5,0,0,1,51,461.16H44.55ZM55,461.14a3.93,3.93,0,1,0,4.12,3.91A3.84,3.84,0,0,0,55,461.14Z" transform="translate(-44.22 -42.74)"/><path class="cls-2" d="M55,456.12a6.06,6.06,0,1,1,6-6.07A5.8,5.8,0,0,1,55,456.12Zm0-10a3.93,3.93,0,1,0,4.12,3.92A3.83,3.83,0,0,0,55,446.13Z" transform="translate(-44.22 -42.74)"/><path class="cls-2" d="M60.19,434.52a4,4,0,0,1,.81,2.55c0,2.35-1.29,3.7-3.65,3.7H51v2H49.21v-2H46.66v-2.12h2.55v-3.34H51v3.34h6.31a1.72,1.72,0,0,0,2-1.82,2.6,2.6,0,0,0-.55-1.65Z" transform="translate(-44.22 -42.74)"/><path class="cls-2" d="M60.19,425.69a4,4,0,0,1,.81,2.56c0,2.35-1.29,3.69-3.65,3.69H51v2H49.21v-2H46.66v-2.11h2.55v-3.34H51v3.34h6.31a1.72,1.72,0,0,0,2-1.82,2.6,2.6,0,0,0-.55-1.65Z" transform="translate(-44.22 -42.74)"/><path class="cls-2" d="M55.75,413v9.47a4,4,0,0,0,3.41-4.23,4.36,4.36,0,0,0-1.41-3.36l1.36-1.17a5.86,5.86,0,0,1,1.89,4.6c0,3.76-2.48,6.27-6,6.27a5.71,5.71,0,0,1-5.94-5.85c0-3.37,2.42-5.77,6-5.77C55.28,413,55.55,413,55.75,413Zm-1.52,9.47V415a3.77,3.77,0,0,0,0,7.49Z" transform="translate(-44.22 -42.74)"/><path class="cls-2" d="M44.55,399.07H60.87v2H59a5,5,0,0,1,2,4.16,5.67,5.67,0,0,1-6,5.89,5.66,5.66,0,0,1-5.94-5.89A5,5,0,0,1,51,401.19H44.55ZM55,401.17a3.93,3.93,0,1,0,4.12,3.91A3.84,3.84,0,0,0,55,401.17Z" transform="translate(-44.22 -42.74)"/><path class="cls-2" d="M44.55,389.15V387H60.87v2.11Z" transform="translate(-44.22 -42.74)"/><path class="cls-2" d="M45.6,383.39A1.39,1.39,0,0,1,44.22,382a1.37,1.37,0,0,1,1.34-1.43,1.43,1.43,0,0,1,0,2.86Zm3.61-.37V380.9H60.87V383Z" transform="translate(-44.22 -42.74)"/><path class="cls-2" d="M54.16,365.81h6.71v2.11H54.4c-2.28,0-3.41,1.15-3.41,3.15,0,2.24,1.35,3.7,3.88,3.7h6v2.11H49.21v-2H51a5,5,0,0,1-1.87-4.2C49.1,367.81,50.73,365.81,54.16,365.81Z" transform="translate(-44.22 -42.74)"/><path class="cls-2" d="M55.75,351.34v9.46a4,4,0,0,0,3.41-4.23,4.36,4.36,0,0,0-1.41-3.36L59.11,352a5.86,5.86,0,0,1,1.89,4.6c0,3.76-2.48,6.27-6,6.27a5.71,5.71,0,0,1-5.94-5.85c0-3.37,2.42-5.77,6-5.77A5,5,0,0,1,55.75,351.34Zm-1.52,9.46v-7.48a3.76,3.76,0,0,0,0,7.48Z" transform="translate(-44.22 -42.74)"/><path class="cls-2" d="M162.59,727.74c0,2.66-2.11,4.2-6.16,4.2h-8v-15.4H156c3.85,0,5.83,1.61,5.83,4a3.7,3.7,0,0,1-2,3.39A3.8,3.8,0,0,1,162.59,727.74ZM152,719.23v3.63h3.54c1.74,0,2.68-.62,2.68-1.83s-.94-1.8-2.68-1.8Zm7,8.14c0-1.3-1-1.92-2.83-1.92H152v3.81h4.16C158,729.26,159,728.69,159,727.37Z" transform="translate(-44.22 -42.74)"/><path class="cls-2" d="M164.17,726c0-3.57,2.75-6.1,6.51-6.1s6.5,2.53,6.5,6.1-2.73,6.09-6.5,6.09S164.17,729.59,164.17,726Zm9.53,0a3,3,0,1,0-3,3.27A3,3,0,0,0,173.7,726Z" transform="translate(-44.22 -42.74)"/><path class="cls-2" d="M191.39,720.11v11.83h-3.26v-1.4a4.79,4.79,0,0,1-3.67,1.58c-3,0-5.06-1.67-5.06-5.32v-6.69h3.43v6.18c0,2,.88,2.86,2.4,2.86s2.73-1,2.73-3.19v-5.85Z" transform="translate(-44.22 -42.74)"/><path class="cls-2" d="M206.68,725.17v6.77h-3.43V725.7c0-1.92-.88-2.8-2.4-2.8s-2.84,1-2.84,3.19v5.85h-3.43V720.11h3.27v1.38a5.2,5.2,0,0,1,3.92-1.56C204.57,719.93,206.68,721.56,206.68,725.17Z" transform="translate(-44.22 -42.74)"/><path class="cls-2" d="M222,715.62v16.32h-3.28v-1.36a4.57,4.57,0,0,1-3.7,1.54,6.1,6.1,0,0,1,0-12.19,4.53,4.53,0,0,1,3.54,1.43v-5.74ZM218.6,726a3,3,0,1,0-3,3.27A3,3,0,0,0,218.6,726Z" transform="translate(-44.22 -42.74)"/><path class="cls-2" d="M235.61,725.19v6.75h-3.22v-1.47a3.87,3.87,0,0,1-3.6,1.65c-2.78,0-4.43-1.54-4.43-3.59s1.48-3.54,5.09-3.54h2.72c0-1.47-.88-2.33-2.72-2.33a5.67,5.67,0,0,0-3.41,1.1l-1.24-2.4a9.16,9.16,0,0,1,5.11-1.43C233.52,719.93,235.61,721.6,235.61,725.19Zm-3.44,3V727h-2.35c-1.61,0-2.11.6-2.11,1.39s.72,1.43,1.93,1.43A2.52,2.52,0,0,0,232.17,728.2Z" transform="translate(-44.22 -42.74)"/><path class="cls-2" d="M246.06,719.93v3.17c-.29,0-.51,0-.77,0-1.9,0-3.15,1-3.15,3.3v5.58h-3.43V720.11H242v1.56A4.75,4.75,0,0,1,246.06,719.93Z" transform="translate(-44.22 -42.74)"/><path class="cls-2" d="M260.27,720.11l-5.35,12.56c-1.14,2.86-2.77,3.72-4.9,3.72a5.28,5.28,0,0,1-3.31-1.08l1.26-2.44a3,3,0,0,0,1.93.75c.95,0,1.48-.42,1.94-1.48l0-.11-5.13-11.92h3.54l3.32,8,3.35-8Z" transform="translate(-44.22 -42.74)"/><path class="cls-2" d="M260.93,722.06a2.14,2.14,0,0,1,4.27,0,2.14,2.14,0,1,1-4.27,0Zm0,7.9a2.14,2.14,0,0,1,4.27,0,2.14,2.14,0,1,1-4.27,0Z" transform="translate(-44.22 -42.74)"/><path class="cls-2" d="M277.69,716.54v15.4h-2.18V718.46H272v-1.92Z" transform="translate(-44.22 -42.74)"/><path class="cls-2" d="M291.86,727.32c0,2.67-1.89,4.8-5.83,4.8a8.81,8.81,0,0,1-5.66-1.87l1-1.74a6.9,6.9,0,0,0,4.62,1.65c2.33,0,3.65-1.08,3.65-2.75s-1.1-2.81-4.66-2.81h-3.5l.81-8.06H291v1.92h-6.84l-.42,4.22h1.72C290.06,722.68,291.86,724.6,291.86,727.32Z" transform="translate(-44.22 -42.74)"/><path class="cls-2" d="M293.68,724.24c0-5,2.69-7.87,6.3-7.87s6.27,2.86,6.27,7.87-2.69,7.88-6.27,7.88S293.68,729.26,293.68,724.24Zm10.37,0c0-3.93-1.67-5.92-4.07-5.92s-4.1,2-4.1,5.92,1.68,5.92,4.1,5.92S304.05,728.18,304.05,724.24Z" transform="translate(-44.22 -42.74)"/><path class="cls-2" d="M328.67,725.23v6.71h-2.12v-6.46c0-2.29-1.1-3.42-3-3.42-2.11,0-3.5,1.35-3.5,3.88v6h-2.11v-6.46c0-2.29-1.1-3.42-3-3.42-2.12,0-3.5,1.35-3.5,3.88v6H309.3V720.28h2V722a4.7,4.7,0,0,1,4-1.85,4.32,4.32,0,0,1,4,2.16,5.26,5.26,0,0,1,4.49-2.16C326.73,720.17,328.67,721.8,328.67,725.23Z" transform="translate(-44.22 -42.74)"/><path class="cls-2" d="M351.92,725.23v6.71h-2.11v-6.46c0-2.29-1.1-3.42-3-3.42-2.11,0-3.49,1.35-3.49,3.88v6h-2.12v-6.46c0-2.29-1.1-3.42-3-3.42-2.11,0-3.5,1.35-3.5,3.88v6h-2.11V720.28h2V722a4.73,4.73,0,0,1,4-1.85,4.33,4.33,0,0,1,4.05,2.16,5.26,5.26,0,0,1,4.49-2.16C350,720.17,351.92,721.8,351.92,725.23Z" transform="translate(-44.22 -42.74)"/><path class="cls-2" d="M369.17,731.94l-3.37-4.46-3.41,4.46H360l4.59-6-4.37-5.7h2.35l3.21,4.21,3.19-4.21h2.31l-4.4,5.7,4.65,6Z" transform="translate(-44.22 -42.74)"/><path class="cls-2" d="M383.62,716.54v15.4h-2.18V718.46H378v-1.92Z" transform="translate(-44.22 -42.74)"/><path class="cls-2" d="M397.79,727.32c0,2.67-1.89,4.8-5.83,4.8a8.81,8.81,0,0,1-5.66-1.87l1-1.74a7,7,0,0,0,4.63,1.65c2.33,0,3.65-1.08,3.65-2.75s-1.1-2.81-4.67-2.81h-3.5l.82-8.06h8.69v1.92h-6.84l-.42,4.22h1.72C396,722.68,397.79,724.6,397.79,727.32Z" transform="translate(-44.22 -42.74)"/><path class="cls-2" d="M399.61,724.24c0-5,2.69-7.87,6.3-7.87s6.27,2.86,6.27,7.87-2.69,7.88-6.27,7.88S399.61,729.26,399.61,724.24Zm10.37,0c0-3.93-1.68-5.92-4.07-5.92s-4.1,2-4.1,5.92,1.68,5.92,4.1,5.92S410,728.18,410,724.24Z" transform="translate(-44.22 -42.74)"/><path class="cls-2" d="M434.6,725.23v6.71h-2.12v-6.46c0-2.29-1.1-3.42-3-3.42-2.11,0-3.5,1.35-3.5,3.88v6h-2.11v-6.46c0-2.29-1.1-3.42-3-3.42-2.11,0-3.5,1.35-3.5,3.88v6h-2.11V720.28h2V722a4.7,4.7,0,0,1,4-1.85,4.32,4.32,0,0,1,4.05,2.16,5.26,5.26,0,0,1,4.49-2.16C432.66,720.17,434.6,721.8,434.6,725.23Z" transform="translate(-44.22 -42.74)"/><path class="cls-2" d="M457.85,725.23v6.71h-2.11v-6.46c0-2.29-1.1-3.42-3-3.42-2.11,0-3.5,1.35-3.5,3.88v6h-2.11v-6.46c0-2.29-1.1-3.42-3-3.42-2.11,0-3.5,1.35-3.5,3.88v6h-2.11V720.28h2V722a4.73,4.73,0,0,1,4-1.85,4.33,4.33,0,0,1,4,2.16,5.25,5.25,0,0,1,4.49-2.16C455.91,720.17,457.85,721.8,457.85,725.23Z" transform="translate(-44.22 -42.74)"/><path class="cls-2" d="M151.65,759.45h-4.92v-2.91h13.42v2.91h-4.93v12.49h-3.57Z" transform="translate(-44.22 -42.74)"/><path class="cls-2" d="M171.7,765.19v6.75h-3.22v-1.47a3.87,3.87,0,0,1-3.6,1.65c-2.78,0-4.43-1.54-4.43-3.59s1.48-3.54,5.09-3.54h2.72c0-1.47-.88-2.33-2.72-2.33a5.67,5.67,0,0,0-3.41,1.1l-1.24-2.4a9.16,9.16,0,0,1,5.11-1.43C169.61,759.93,171.7,761.6,171.7,765.19Zm-3.44,3V767h-2.35c-1.61,0-2.11.6-2.11,1.39s.72,1.43,1.93,1.43A2.52,2.52,0,0,0,168.26,768.2Z" transform="translate(-44.22 -42.74)"/><path class="cls-2" d="M182.15,759.93v3.17c-.29,0-.51,0-.77,0-1.9,0-3.15,1-3.15,3.3v5.58H174.8V760.11h3.28v1.56A4.75,4.75,0,0,1,182.15,759.93Z" transform="translate(-44.22 -42.74)"/><path class="cls-2" d="M196.29,760.11V770c0,4.4-2.37,6.43-6.64,6.43a9.74,9.74,0,0,1-5.81-1.63l1.36-2.46a7.15,7.15,0,0,0,4.19,1.34c2.42,0,3.47-1.1,3.47-3.24v-.5a4.87,4.87,0,0,1-3.74,1.47,5.72,5.72,0,1,1,0-11.44,4.74,4.74,0,0,1,3.92,1.7v-1.52Zm-3.38,5.54a3.12,3.12,0,1,0-3.11,2.91A2.87,2.87,0,0,0,192.91,765.65Z" transform="translate(-44.22 -42.74)"/><path class="cls-2" d="M211,767h-8.95a3.15,3.15,0,0,0,3.38,2.38,4,4,0,0,0,3-1.14l1.82,2a6.21,6.21,0,0,1-4.88,1.91c-4.1,0-6.76-2.57-6.76-6.09a6,6,0,0,1,6.32-6.1,5.86,5.86,0,0,1,6.16,6.14C211.08,766.33,211,766.71,211,767Zm-9-2h5.83a3,3,0,0,0-5.83,0Z" transform="translate(-44.22 -42.74)"/><path class="cls-2" d="M221,771.37a4.88,4.88,0,0,1-2.8.75c-2.79,0-4.42-1.43-4.42-4.25V763H212v-2.64h1.82v-2.88h3.43v2.88h2.95V763h-2.95v4.82a1.38,1.38,0,0,0,1.48,1.56,2.32,2.32,0,0,0,1.39-.44Z" transform="translate(-44.22 -42.74)"/><path class="cls-2" d="M228.19,770.43l1.21-2.69a9,9,0,0,0,5.08,1.61c2.12,0,3-.71,3-1.65,0-2.88-8.95-.9-8.95-6.62,0-2.62,2.11-4.8,6.49-4.8a10.35,10.35,0,0,1,5.35,1.36l-1.1,2.71a8.65,8.65,0,0,0-4.27-1.21c-2.11,0-2.93.79-2.93,1.76,0,2.84,9,.88,9,6.53,0,2.58-2.14,4.78-6.54,4.78A11,11,0,0,1,228.19,770.43Z" transform="translate(-44.22 -42.74)"/><path class="cls-2" d="M256.09,766a5.75,5.75,0,0,1-5.9,6.09,4.59,4.59,0,0,1-3.56-1.43v5.52H243.2v-16.1h3.27v1.36a4.62,4.62,0,0,1,3.72-1.54A5.76,5.76,0,0,1,256.09,766Zm-3.48,0a3,3,0,1,0-3,3.27A3,3,0,0,0,252.61,766Z" transform="translate(-44.22 -42.74)"/><path class="cls-2" d="M268.65,765.19v6.75h-3.21v-1.47a3.88,3.88,0,0,1-3.61,1.65c-2.77,0-4.42-1.54-4.42-3.59s1.47-3.54,5.08-3.54h2.73c0-1.47-.88-2.33-2.73-2.33a5.72,5.72,0,0,0-3.41,1.1l-1.23-2.4a9.13,9.13,0,0,1,5.1-1.43C266.56,759.93,268.65,761.6,268.65,765.19Zm-3.43,3V767h-2.36c-1.6,0-2.11.6-2.11,1.39s.73,1.43,1.94,1.43A2.54,2.54,0,0,0,265.22,768.2Z" transform="translate(-44.22 -42.74)"/><path class="cls-2" d="M271,766c0-3.57,2.75-6.1,6.6-6.1,2.49,0,4.45,1.08,5.31,3l-2.67,1.43a2.93,2.93,0,0,0-2.66-1.63,3.28,3.28,0,0,0,0,6.55,2.9,2.9,0,0,0,2.66-1.62l2.67,1.45a5.5,5.5,0,0,1-5.31,3C273.75,772.12,271,769.59,271,766Z" transform="translate(-44.22 -42.74)"/><path class="cls-2" d="M284.47,756.54a2,2,0,0,1,2.13-1.91,1.92,1.92,0,0,1,2.13,1.85,2.14,2.14,0,0,1-4.26.06Zm.41,3.57h3.44v11.83h-3.44Z" transform="translate(-44.22 -42.74)"/><path class="cls-2" d="M303.61,765.17v6.77h-3.43V765.7c0-1.92-.88-2.8-2.4-2.8s-2.84,1-2.84,3.19v5.85h-3.43V760.11h3.28v1.38a5.18,5.18,0,0,1,3.91-1.56C301.5,759.93,303.61,761.56,303.61,765.17Z" transform="translate(-44.22 -42.74)"/><path class="cls-2" d="M319.05,760.11V770c0,4.4-2.37,6.43-6.64,6.43a9.72,9.72,0,0,1-5.81-1.63L308,772.3a7.11,7.11,0,0,0,4.18,1.34c2.42,0,3.48-1.1,3.48-3.24v-.5a4.87,4.87,0,0,1-3.74,1.47,5.72,5.72,0,1,1,0-11.44,4.76,4.76,0,0,1,3.92,1.7v-1.52Zm-3.39,5.54a3.12,3.12,0,0,0-6.22,0,3.12,3.12,0,0,0,6.22,0Z" transform="translate(-44.22 -42.74)"/><path class="cls-2" d="M321.4,762.06a2.14,2.14,0,0,1,4.27,0,2.14,2.14,0,1,1-4.27,0Zm0,7.9a2.14,2.14,0,0,1,4.27,0,2.14,2.14,0,1,1-4.27,0Z" transform="translate(-44.22 -42.74)"/><path class="cls-2" d="M343.93,767.41c0,2.6-1.91,4.71-5.83,4.71a8.7,8.7,0,0,1-5.65-1.87l1-1.74a6.92,6.92,0,0,0,4.64,1.65c2.31,0,3.63-1,3.63-2.73s-1.16-2.68-3.8-2.68h-1.24v-1.54l3.88-4.75h-7.42v-1.92h10.17V758l-4,5C342.37,763.3,343.93,765,343.93,767.41Z" transform="translate(-44.22 -42.74)"/><path class="cls-2" d="M356.69,770v1.91H345.63v-1.49l6.27-6.05c1.62-1.59,1.93-2.55,1.93-3.52,0-1.59-1.12-2.56-3.28-2.56a4.8,4.8,0,0,0-3.93,1.68l-1.5-1.3a7.11,7.11,0,0,1,5.63-2.33c3.21,0,5.28,1.65,5.28,4.29,0,1.49-.44,2.84-2.53,4.84L348.79,770Z" transform="translate(-44.22 -42.74)"/><path class="cls-2" d="M378.8,765.23v6.71h-2.11v-6.46c0-2.29-1.1-3.42-3-3.42-2.11,0-3.5,1.35-3.5,3.88v6h-2.11v-6.46c0-2.29-1.1-3.42-3-3.42-2.11,0-3.5,1.35-3.5,3.88v6h-2.11V760.28h2V762a4.7,4.7,0,0,1,4-1.85,4.33,4.33,0,0,1,4.05,2.16,5.26,5.26,0,0,1,4.49-2.16C376.87,760.17,378.8,761.8,378.8,765.23Z" transform="translate(-44.22 -42.74)"/><path class="cls-2" d="M402.06,765.23v6.71H400v-6.46c0-2.29-1.1-3.42-3-3.42-2.11,0-3.5,1.35-3.5,3.88v6h-2.11v-6.46c0-2.29-1.1-3.42-3-3.42-2.12,0-3.5,1.35-3.5,3.88v6H382.7V760.28h2V762a4.73,4.73,0,0,1,4-1.85,4.33,4.33,0,0,1,4.05,2.16,5.23,5.23,0,0,1,4.48-2.16C400.12,760.17,402.06,761.8,402.06,765.23Z" transform="translate(-44.22 -42.74)"/></svg>